<?xml version="1.0" encoding="iso-8859-1"?>
<!-- Generator: Adobe Illustrator 16.0.0, SVG Export Plug-In . SVG Version: 6.00 Build 0)  -->
<!DOCTYPE svg PUBLIC "-//W3C//DTD SVG 1.1//EN" "http://www.w3.org/Graphics/SVG/1.1/DTD/svg11.dtd">
<svg version="1.1" id="Capa_1" xmlns="http://www.w3.org/2000/svg" xmlns:xlink="http://www.w3.org/1999/xlink" x="0px" y="0px"
	 width="302.465px" height="302.466px" viewBox="0 0 302.465 302.466" style="enable-background:new 0 0 302.465 302.466;"
	 xml:space="preserve">
<g>
	<g>
		<path style="fill:#61DAFB;" d="M282.619,153.435c-12.797-12.792-29.779-19.836-47.826-19.836c-0.263,0-0.514,0.037-0.777,0.043
			c3.831-3.748,6.227-8.96,6.227-14.727c0-11.381-9.263-20.639-20.647-20.639H186.27l-25.856-31.735
			c-3.82-4.68-9.458-7.451-15.127-7.577c-5.941-0.48-11.919,2.024-16.182,6.756l-34.517,38.105
			c-7.631,8.425-6.993,21.502,1.415,29.142l33.919,30.834v11.014c-10.315-24.199-34.339-41.21-62.264-41.21
			C30.348,133.604,0,163.955,0,201.26c0,37.315,30.354,67.679,67.658,67.679c29.188,0,54.05-18.618,63.519-44.584
			c2.833,8.028,10.416,13.826,19.398,13.826c9.695,0,17.797-6.741,20.004-15.765c8.903,26.983,34.303,46.522,64.225,46.522
			c37.305,0,67.661-30.363,67.661-67.679C302.46,183.214,295.416,166.236,282.619,153.435z M67.653,257.222
			c-30.852,0-55.948-25.102-55.948-55.962c0-30.854,25.102-55.951,55.948-55.951c30.846,0,55.948,25.096,55.948,55.951
			C123.601,232.12,98.504,257.222,67.653,257.222z M159.503,217.527c0,4.924-4.011,8.926-8.934,8.926
			c-4.926,0-8.937-4.002-8.937-8.926v-58.912l-37.753-34.314c-3.642-3.308-3.911-8.969-0.609-12.616l34.522-38.114
			c1.676-1.855,3.923-2.962,6.001-2.962l0.855,0.04c2.593,0.066,5.029,1.267,6.687,3.291l29.365,36.052h38.905
			c4.929,0,8.932,4.005,8.932,8.929s-4.015,8.929-8.932,8.929h-43.148c-2.698,0-5.226-1.201-6.93-3.285l-25.477-31.277
			l-21.551,23.79l34.077,30.969c1.858,1.698,2.933,4.12,2.933,6.636v62.847H159.503z M164.461,139.374l-25.439-23.107l4.555-5.023
			l16.871,20.716c3.945,4.826,9.777,7.594,15.999,7.594h30.739c-16.668,7.485-29.722,21.509-35.978,38.8V154.67
			C171.214,148.863,168.75,143.291,164.461,139.374z M234.792,257.222c-30.848,0-55.944-25.102-55.944-55.962
			c0-30.854,25.097-55.951,55.944-55.951c14.925,0,28.957,5.827,39.546,16.405c10.584,10.59,16.405,24.622,16.405,39.546
			C290.744,232.12,265.647,257.222,234.792,257.222z"/>
		<path style="fill:#61DAFB;" d="M196.917,83.251c13.712,0,24.862-11.156,24.862-24.862c0-13.709-11.15-24.862-24.862-24.862
			c-13.706,0-24.861,11.153-24.861,24.862C172.055,72.096,183.21,83.251,196.917,83.251z M196.917,45.238
			c7.251,0,13.151,5.901,13.151,13.151c0,7.247-5.9,13.151-13.151,13.151c-7.25,0-13.151-5.904-13.151-13.151
			C183.765,51.139,189.667,45.238,196.917,45.238z"/>
	</g>
</g>
<g>
</g>
<g>
</g>
<g>
</g>
<g>
</g>
<g>
</g>
<g>
</g>
<g>
</g>
<g>
</g>
<g>
</g>
<g>
</g>
<g>
</g>
<g>
</g>
<g>
</g>
<g>
</g>
<g>
</g>
</svg>
